<svg xmlns="http://www.w3.org/2000/svg" viewBox="0 0 1600 900" role="img" aria-labelledby="title desc">
  <title id="title">8202 article thumbnail</title>
  <desc id="desc">A gradient background with a friendly white icon</desc>
  <defs>
    <linearGradient id="bg-8202" x1="0" y1="0" x2="1" y2="1"><stop offset="0" stop-color="#9c3e52"/><stop offset="1" stop-color="#e28478"/></linearGradient>
    <linearGradient id="icon-fill" x1="0" y1="0" x2="0" y2="1"><stop offset="0" stop-color="#fff"/><stop offset=".34" stop-color="#fff"/><stop offset="1" stop-color="#ffd0ae"/></linearGradient>
    <filter id="grain" x="0" y="0" width="100%" height="100%"><feTurbulence type="fractalNoise" baseFrequency=".72" numOctaves="2" stitchTiles="stitch"/><feColorMatrix type="saturate" values="0"/><feComponentTransfer><feFuncA type="table" tableValues="0 .055"/></feComponentTransfer></filter>
    <filter id="shadow" x="-30%" y="-30%" width="160%" height="160%"><feDropShadow dx="0" dy="18" stdDeviation="18" flood-color="#052341" flood-opacity=".18"/></filter>
  </defs>
  <rect width="1600" height="900" rx="48" fill="url(#bg-8202)"/>
  <circle cx="308" cy="150" r="310" fill="#fff" opacity=".09"/><circle cx="1280" cy="760" r="390" fill="#fff" opacity=".1"/><path d="M0 710c240-150 430-160 630-40s450 150 970-180v410H0Z" fill="#fff" opacity=".06"/>
  <rect width="1600" height="900" rx="48" filter="url(#grain)" opacity=".42"/>
  <g filter="url(#shadow)" transform="translate(-53 4)"><g fill="url(#icon-fill)"><path d="m800 210 30 150 150 30-150 30-30 150-30-150-150-30 150-30 30-150Z"/><path d="m1060 470 18 88 88 18-88 18-18 88-18-88-88-18 88-18 18-88Z"/><circle cx="570" cy="560" r="30"/><circle cx="1030" cy="250" r="20"/></g></g>
</svg>
