<svg xmlns="http://www.w3.org/2000/svg" viewBox="0 0 1600 900" role="img" aria-labelledby="title desc">
  <title id="title">gijiroku-template article thumbnail</title>
  <desc id="desc">A gradient background with a friendly white icon</desc>
  <defs>
    <linearGradient id="bg-gijiroku-template" x1="0" y1="0" x2="1" y2="1"><stop offset="0" stop-color="#9c3e52"/><stop offset="1" stop-color="#e28478"/></linearGradient>
    <linearGradient id="icon-fill" x1="0" y1="0" x2="0" y2="1"><stop offset="0" stop-color="#fff"/><stop offset=".34" stop-color="#fff"/><stop offset="1" stop-color="#ffd0ae"/></linearGradient>
    <filter id="grain" x="0" y="0" width="100%" height="100%"><feTurbulence type="fractalNoise" baseFrequency=".72" numOctaves="2" stitchTiles="stitch"/><feColorMatrix type="saturate" values="0"/><feComponentTransfer><feFuncA type="table" tableValues="0 .055"/></feComponentTransfer></filter>
    <filter id="shadow" x="-30%" y="-30%" width="160%" height="160%"><feDropShadow dx="0" dy="18" stdDeviation="18" flood-color="#052341" flood-opacity=".18"/></filter>
  </defs>
  <rect width="1600" height="900" rx="48" fill="url(#bg-gijiroku-template)"/>
  <circle cx="329" cy="-40" r="720" fill="none" stroke="#fff" stroke-width="140" opacity=".09"/><circle cx="1076" cy="980" r="720" fill="none" stroke="#fff" stroke-width="120" opacity=".1"/>
  <rect width="1600" height="900" rx="48" filter="url(#grain)" opacity=".42"/>
  <g filter="url(#shadow)"><g fill="none" stroke="url(#icon-fill)" stroke-width="34" stroke-linecap="round" stroke-linejoin="round"><circle cx="800" cy="450" r="190"/><path d="M610 450h380M800 260c-88 90-88 290 0 380M800 260c88 90 88 290 0 380M670 330c80 45 180 45 260 0M670 570c80-45 180-45 260 0"/></g></g>
</svg>
